<?xml version="1.0" standalone="no"?><!DOCTYPE svg PUBLIC "-//W3C//DTD SVG 1.1//EN" "http://www.w3.org/Graphics/SVG/1.1/DTD/svg11.dtd"><svg t="1519134802236" class="icon" style="" viewBox="0 0 1024 1024" version="1.1" xmlns="http://www.w3.org/2000/svg" p-id="1018" xmlns:xlink="http://www.w3.org/1999/xlink" width="200" height="200"><defs><style type="text/css"></style></defs><path d="M981.3 170.7H320c-23.6 0-42.7-19.1-42.7-42.7s19.1-42.7 42.7-42.7h661.3c23.6 0 42.7 19.1 42.7 42.7s-19.1 42.7-42.7 42.7zM981.3 938.7H320c-23.6 0-42.7-19.1-42.7-42.7s19.1-42.7 42.7-42.7h661.3c23.6 0 42.7 19.1 42.7 42.7s-19.1 42.7-42.7 42.7zM981.3 554.7H320c-23.6 0-42.7-19.1-42.7-42.7s19.1-42.7 42.7-42.7h661.3c23.6 0 42.7 19.1 42.7 42.7s-19.1 42.7-42.7 42.7z" fill="#3688FF" p-id="1019"></path><path d="M106.7 128m-64 0a64 64 0 1 0 128 0 64 64 0 1 0-128 0Z" fill="#5F6379" p-id="1020"></path><path d="M106.7 512m-64 0a64 64 0 1 0 128 0 64 64 0 1 0-128 0Z" fill="#5F6379" p-id="1021"></path><path d="M106.7 896m-64 0a64 64 0 1 0 128 0 64 64 0 1 0-128 0Z" fill="#5F6379" p-id="1022"></path></svg>